<?xml version="1.0" encoding="iso-8859-1"?>
<!-- Generator: Adobe Illustrator 18.0.0, SVG Export Plug-In . SVG Version: 6.00 Build 0)  -->
<!DOCTYPE svg PUBLIC "-//W3C//DTD SVG 1.1//EN" "http://www.w3.org/Graphics/SVG/1.1/DTD/svg11.dtd">
<svg version="1.1" id="Capa_1" xmlns="http://www.w3.org/2000/svg" xmlns:xlink="http://www.w3.org/1999/xlink" x="0px" y="0px"
	 viewBox="0 0 370.298 370.298" style="enable-background:new 0 0 370.298 370.298;" xml:space="preserve">
<g>
	<rect x="30.009" y="30.009" style="fill:#E6E6E6;" width="310.28" height="310.28"/>
	<polygon style="fill:#FFFFFF;" points="19.475,85.339 19.475,72.942 350.823,72.942 350.823,85.339 267.989,85.339 185.145,85.339 
		102.31,85.339 	"/>
	<polygon style="fill:#FFFFFF;" points="19.475,156.009 19.475,143.612 60.888,143.612 143.732,143.612 226.567,143.612 
		309.402,143.612 350.823,143.612 350.823,156.009 267.989,156.009 185.145,156.009 102.31,156.009 	"/>
	<polygon style="fill:#FFFFFF;" points="19.475,226.679 19.475,214.282 60.888,214.282 143.732,214.282 226.567,214.282 
		309.402,214.282 350.823,214.282 350.823,226.679 267.989,226.679 185.145,226.679 102.31,226.679 	"/>
	<polygon style="fill:#FFFFFF;" points="19.475,297.356 19.475,284.952 60.888,284.952 143.732,284.952 226.567,284.952 
		309.402,284.952 350.823,284.952 350.823,297.356 	"/>
	<polygon style="fill:#F98680;" points="84.214,214.282 50.575,156.009 117.86,156.009 	"/>
	<polygon style="fill:#26A3BF;" points="84.214,143.612 50.575,85.339 117.86,85.339 	"/>
	<polygon style="fill:#F98680;" points="84.214,284.952 117.86,226.679 151.507,284.952 	"/>
	<polygon style="fill:#26A3BF;" points="84.214,214.282 117.86,156.009 151.507,214.282 	"/>
	<polygon style="fill:#26A3BF;" points="151.507,284.952 117.86,226.679 185.146,226.679 	"/>
	<polygon style="fill:#F98680;" points="151.507,143.612 117.86,85.339 185.146,85.339 	"/>
	<polygon style="fill:#F98680;" points="151.507,214.282 185.146,156.009 218.792,214.282 	"/>
	<polygon style="fill:#F98680;" points="218.792,284.952 185.146,226.679 252.438,226.679 	"/>
	<polygon style="fill:#26A3BF;" points="218.792,214.282 185.146,156.009 252.438,156.009 	"/>
	<polygon style="fill:#26A3BF;" points="218.792,143.612 185.146,85.339 252.438,85.339 	"/>
	<polygon style="fill:#F98680;" points="218.792,143.612 252.438,85.339 286.077,143.612 	"/>
	<polygon style="fill:#26A3BF;" points="286.077,284.952 252.438,226.679 319.723,226.679 	"/>
	<polygon style="fill:#F98680;" points="286.077,214.282 252.438,156.009 319.723,156.009 	"/>
	<g>
		<polygon style="fill:#FFE473;" points="84.214,284.952 50.575,226.679 117.86,226.679 		"/>
		<polygon style="fill:#FFE473;" points="84.214,143.612 117.86,85.339 151.507,143.612 		"/>
		<polygon style="fill:#FFE473;" points="151.507,214.282 117.86,156.009 185.146,156.009 		"/>
		<polygon style="fill:#FFE473;" points="151.507,284.952 185.146,226.679 218.792,284.952 		"/>
		<polygon style="fill:#FFE473;" points="151.507,143.612 185.146,85.339 218.792,143.612 		"/>
		<polygon style="fill:#FFE473;" points="218.792,284.952 252.438,226.679 286.077,284.952 		"/>
		<polygon style="fill:#FFE473;" points="218.792,214.282 252.438,156.009 286.077,214.282 		"/>
		<polygon style="fill:#FFE473;" points="286.077,143.612 252.438,85.339 319.723,85.339 		"/>
	</g>
	<g>
		<path style="fill:#26A3BF;" d="M319.149,18h33.149v33.149c0,4.971,4.029,9,9,9l0,0c4.971,0,9-4.029,9-9V9c0-4.971-4.029-9-9-9
			h-42.149c-4.971,0-9,4.029-9,9v0C310.149,13.971,314.179,18,319.149,18z"/>
		<path style="fill:#26A3BF;" d="M18,51.149V18h33.149c4.971,0,9-4.029,9-9v0c0-4.971-4.029-9-9-9L9,0C4.029,0,0,4.029,0,9v42.149
			c0,4.971,4.029,9,9,9h0C13.971,60.149,18,56.12,18,51.149z"/>
		<path style="fill:#26A3BF;" d="M51.149,352.298H18v-33.149c0-4.971-4.029-9-9-9h0c-4.971,0-9,4.029-9,9l0,42.149
			c0,4.971,4.029,9,9,9h42.149c4.971,0,9-4.029,9-9l0,0C60.149,356.328,56.12,352.298,51.149,352.298z"/>
		<path style="fill:#26A3BF;" d="M352.298,319.149v33.149h-33.149c-4.971,0-9,4.029-9,9l0,0c0,4.971,4.029,9,9,9h42.149
			c4.971,0,9-4.029,9-9v-42.149c0-4.971-4.029-9-9-9l0,0C356.328,310.149,352.298,314.179,352.298,319.149z"/>
	</g>
</g>
<g>
</g>
<g>
</g>
<g>
</g>
<g>
</g>
<g>
</g>
<g>
</g>
<g>
</g>
<g>
</g>
<g>
</g>
<g>
</g>
<g>
</g>
<g>
</g>
<g>
</g>
<g>
</g>
<g>
</g>
</svg>
